<mxfile host="app.diagrams.net" modified="2024-07-08T13:55:17.816Z" agent="Mozilla/5.0 (Windows NT 10.0; Win64; x64) AppleWebKit/537.36 (KHTML, like Gecko) Chrome/126.0.0.0 Safari/537.36" etag="IOSU6Xtia-i7K5aNZwbY" version="24.6.4" type="github">
  <diagram name="페이지-1" id="vaQAqseoRmlYnzJwH8KV">
    <mxGraphModel dx="1434" dy="746" grid="1" gridSize="10" guides="1" tooltips="1" connect="1" arrows="1" fold="1" page="1" pageScale="1" pageWidth="827" pageHeight="1169" math="0" shadow="0">
      <root>
        <mxCell id="0" />
        <mxCell id="1" parent="0" />
        <mxCell id="G_HvF8o0j8jsXv9Kuq5L-1" value="고객" style="whiteSpace=wrap;html=1;align=center;" vertex="1" parent="1">
          <mxGeometry x="370" y="300" width="100" height="40" as="geometry" />
        </mxCell>
        <mxCell id="G_HvF8o0j8jsXv9Kuq5L-2" value="고객명" style="ellipse;whiteSpace=wrap;html=1;align=center;" vertex="1" parent="1">
          <mxGeometry x="280" y="230" width="100" height="40" as="geometry" />
        </mxCell>
        <mxCell id="G_HvF8o0j8jsXv9Kuq5L-3" value="" style="endArrow=none;html=1;rounded=0;exitX=0.5;exitY=1;exitDx=0;exitDy=0;entryX=0.5;entryY=0;entryDx=0;entryDy=0;" edge="1" parent="1" source="G_HvF8o0j8jsXv9Kuq5L-2" target="G_HvF8o0j8jsXv9Kuq5L-1">
          <mxGeometry relative="1" as="geometry">
            <mxPoint x="330" y="339" as="sourcePoint" />
            <mxPoint x="490" y="339" as="targetPoint" />
          </mxGeometry>
        </mxCell>
        <mxCell id="G_HvF8o0j8jsXv9Kuq5L-8" value="" style="endArrow=none;html=1;rounded=0;exitX=0.5;exitY=0;exitDx=0;exitDy=0;entryX=0.5;entryY=1;entryDx=0;entryDy=0;" edge="1" parent="1" source="G_HvF8o0j8jsXv9Kuq5L-1" target="G_HvF8o0j8jsXv9Kuq5L-12">
          <mxGeometry relative="1" as="geometry">
            <mxPoint x="410" y="249" as="sourcePoint" />
            <mxPoint x="518" y="239" as="targetPoint" />
            <Array as="points" />
          </mxGeometry>
        </mxCell>
        <mxCell id="G_HvF8o0j8jsXv9Kuq5L-11" value="전화번호" style="ellipse;whiteSpace=wrap;html=1;align=center;fontStyle=4;" vertex="1" parent="1">
          <mxGeometry x="470" y="230" width="100" height="40" as="geometry" />
        </mxCell>
        <mxCell id="G_HvF8o0j8jsXv9Kuq5L-12" value="이메일" style="ellipse;whiteSpace=wrap;html=1;align=center;fontStyle=4;" vertex="1" parent="1">
          <mxGeometry x="380" y="190" width="100" height="40" as="geometry" />
        </mxCell>
        <mxCell id="G_HvF8o0j8jsXv9Kuq5L-13" value="" style="endArrow=none;html=1;rounded=0;exitX=0.5;exitY=0;exitDx=0;exitDy=0;" edge="1" parent="1" source="G_HvF8o0j8jsXv9Kuq5L-1" target="G_HvF8o0j8jsXv9Kuq5L-11">
          <mxGeometry relative="1" as="geometry">
            <mxPoint x="420" y="297" as="sourcePoint" />
            <mxPoint x="528" y="249" as="targetPoint" />
            <Array as="points" />
          </mxGeometry>
        </mxCell>
        <mxCell id="G_HvF8o0j8jsXv9Kuq5L-14" value="&lt;font color=&quot;#ff6666&quot;&gt;고객코드&lt;/font&gt;" style="ellipse;whiteSpace=wrap;html=1;align=center;fontStyle=4;" vertex="1" parent="1">
          <mxGeometry x="480" y="350" width="100" height="40" as="geometry" />
        </mxCell>
        <mxCell id="G_HvF8o0j8jsXv9Kuq5L-15" value="" style="endArrow=none;html=1;rounded=0;exitX=0.63;exitY=1;exitDx=0;exitDy=0;entryX=0;entryY=0.5;entryDx=0;entryDy=0;exitPerimeter=0;" edge="1" parent="1" source="G_HvF8o0j8jsXv9Kuq5L-1" target="G_HvF8o0j8jsXv9Kuq5L-14">
          <mxGeometry relative="1" as="geometry">
            <mxPoint x="480" y="329" as="sourcePoint" />
            <mxPoint x="540" y="319" as="targetPoint" />
            <Array as="points" />
          </mxGeometry>
        </mxCell>
        <mxCell id="G_HvF8o0j8jsXv9Kuq5L-16" value="주소" style="ellipse;whiteSpace=wrap;html=1;align=center;" vertex="1" parent="1">
          <mxGeometry x="220" y="300" width="90" height="40" as="geometry" />
        </mxCell>
        <mxCell id="G_HvF8o0j8jsXv9Kuq5L-17" value="" style="endArrow=none;html=1;rounded=0;exitX=0.5;exitY=1;exitDx=0;exitDy=0;entryX=0.5;entryY=0;entryDx=0;entryDy=0;" edge="1" parent="1" source="G_HvF8o0j8jsXv9Kuq5L-2" target="G_HvF8o0j8jsXv9Kuq5L-1">
          <mxGeometry relative="1" as="geometry">
            <mxPoint x="400" y="239" as="sourcePoint" />
            <mxPoint x="420" y="299" as="targetPoint" />
            <Array as="points" />
          </mxGeometry>
        </mxCell>
        <mxCell id="G_HvF8o0j8jsXv9Kuq5L-18" value="" style="endArrow=none;html=1;rounded=0;exitX=1;exitY=0.5;exitDx=0;exitDy=0;entryX=0;entryY=0.5;entryDx=0;entryDy=0;" edge="1" parent="1" source="G_HvF8o0j8jsXv9Kuq5L-16" target="G_HvF8o0j8jsXv9Kuq5L-1">
          <mxGeometry relative="1" as="geometry">
            <mxPoint x="410" y="249" as="sourcePoint" />
            <mxPoint x="430" y="309" as="targetPoint" />
            <Array as="points" />
          </mxGeometry>
        </mxCell>
        <mxCell id="G_HvF8o0j8jsXv9Kuq5L-19" value="기본주소" style="ellipse;whiteSpace=wrap;html=1;align=center;" vertex="1" parent="1">
          <mxGeometry x="100" y="260" width="90" height="40" as="geometry" />
        </mxCell>
        <mxCell id="G_HvF8o0j8jsXv9Kuq5L-22" value="상세주소" style="ellipse;whiteSpace=wrap;html=1;align=center;" vertex="1" parent="1">
          <mxGeometry x="100" y="330" width="90" height="40" as="geometry" />
        </mxCell>
        <mxCell id="G_HvF8o0j8jsXv9Kuq5L-24" value="" style="endArrow=none;html=1;rounded=0;exitX=0.967;exitY=0.775;exitDx=0;exitDy=0;entryX=0;entryY=0.5;entryDx=0;entryDy=0;exitPerimeter=0;" edge="1" parent="1" source="G_HvF8o0j8jsXv9Kuq5L-19" target="G_HvF8o0j8jsXv9Kuq5L-16">
          <mxGeometry relative="1" as="geometry">
            <mxPoint x="320" y="329" as="sourcePoint" />
            <mxPoint x="380" y="329" as="targetPoint" />
            <Array as="points" />
          </mxGeometry>
        </mxCell>
        <mxCell id="G_HvF8o0j8jsXv9Kuq5L-25" value="" style="endArrow=none;html=1;rounded=0;exitX=1;exitY=0.5;exitDx=0;exitDy=0;entryX=0;entryY=0.5;entryDx=0;entryDy=0;" edge="1" parent="1" source="G_HvF8o0j8jsXv9Kuq5L-22" target="G_HvF8o0j8jsXv9Kuq5L-16">
          <mxGeometry relative="1" as="geometry">
            <mxPoint x="197" y="310" as="sourcePoint" />
            <mxPoint x="230" y="329" as="targetPoint" />
            <Array as="points" />
          </mxGeometry>
        </mxCell>
        <mxCell id="G_HvF8o0j8jsXv9Kuq5L-26" value="가입일" style="ellipse;whiteSpace=wrap;html=1;align=center;" vertex="1" parent="1">
          <mxGeometry x="280" y="370" width="90" height="40" as="geometry" />
        </mxCell>
        <mxCell id="G_HvF8o0j8jsXv9Kuq5L-27" value="" style="endArrow=none;html=1;rounded=0;exitX=0.5;exitY=0;exitDx=0;exitDy=0;" edge="1" parent="1" source="G_HvF8o0j8jsXv9Kuq5L-26">
          <mxGeometry relative="1" as="geometry">
            <mxPoint x="320" y="329" as="sourcePoint" />
            <mxPoint x="370" y="319" as="targetPoint" />
            <Array as="points" />
          </mxGeometry>
        </mxCell>
        <mxCell id="G_HvF8o0j8jsXv9Kuq5L-29" value="" style="endArrow=none;html=1;rounded=0;entryX=0.5;entryY=1;entryDx=0;entryDy=0;" edge="1" parent="1" target="G_HvF8o0j8jsXv9Kuq5L-1">
          <mxGeometry relative="1" as="geometry">
            <mxPoint x="420" y="399" as="sourcePoint" />
            <mxPoint x="380" y="329" as="targetPoint" />
            <Array as="points">
              <mxPoint x="420" y="360" />
            </Array>
          </mxGeometry>
        </mxCell>
        <mxCell id="G_HvF8o0j8jsXv9Kuq5L-30" value="지역" style="whiteSpace=wrap;html=1;align=center;" vertex="1" parent="1">
          <mxGeometry x="380" y="520" width="100" height="40" as="geometry" />
        </mxCell>
        <mxCell id="G_HvF8o0j8jsXv9Kuq5L-31" value="지역명" style="ellipse;whiteSpace=wrap;html=1;align=center;" vertex="1" parent="1">
          <mxGeometry x="250" y="490" width="90" height="40" as="geometry" />
        </mxCell>
        <mxCell id="G_HvF8o0j8jsXv9Kuq5L-33" value="&lt;font color=&quot;#ff6666&quot;&gt;지역코드&lt;/font&gt;" style="ellipse;whiteSpace=wrap;html=1;align=center;fontStyle=4;" vertex="1" parent="1">
          <mxGeometry x="260" y="560" width="90" height="40" as="geometry" />
        </mxCell>
        <mxCell id="G_HvF8o0j8jsXv9Kuq5L-35" value="" style="endArrow=none;html=1;rounded=0;entryX=1;entryY=0.5;entryDx=0;entryDy=0;exitX=0;exitY=0.5;exitDx=0;exitDy=0;" edge="1" parent="1" source="G_HvF8o0j8jsXv9Kuq5L-30" target="G_HvF8o0j8jsXv9Kuq5L-31">
          <mxGeometry relative="1" as="geometry">
            <mxPoint x="430" y="409" as="sourcePoint" />
            <mxPoint x="430" y="349" as="targetPoint" />
            <Array as="points" />
          </mxGeometry>
        </mxCell>
        <mxCell id="G_HvF8o0j8jsXv9Kuq5L-36" value="" style="endArrow=none;html=1;rounded=0;entryX=1;entryY=0.5;entryDx=0;entryDy=0;exitX=0;exitY=0.5;exitDx=0;exitDy=0;" edge="1" parent="1" source="G_HvF8o0j8jsXv9Kuq5L-30" target="G_HvF8o0j8jsXv9Kuq5L-33">
          <mxGeometry relative="1" as="geometry">
            <mxPoint x="370" y="539" as="sourcePoint" />
            <mxPoint x="350" y="559" as="targetPoint" />
            <Array as="points" />
          </mxGeometry>
        </mxCell>
        <mxCell id="G_HvF8o0j8jsXv9Kuq5L-37" value="제품" style="whiteSpace=wrap;html=1;align=center;" vertex="1" parent="1">
          <mxGeometry x="890" y="300" width="100" height="40" as="geometry" />
        </mxCell>
        <mxCell id="G_HvF8o0j8jsXv9Kuq5L-38" value="제품명" style="ellipse;whiteSpace=wrap;html=1;align=center;" vertex="1" parent="1">
          <mxGeometry x="790" y="230" width="90" height="40" as="geometry" />
        </mxCell>
        <mxCell id="G_HvF8o0j8jsXv9Kuq5L-39" value="&lt;font color=&quot;#ff6666&quot;&gt;제품코드&lt;/font&gt;" style="ellipse;whiteSpace=wrap;html=1;align=center;fontStyle=4;" vertex="1" parent="1">
          <mxGeometry x="890" y="210" width="90" height="40" as="geometry" />
        </mxCell>
        <mxCell id="G_HvF8o0j8jsXv9Kuq5L-40" value="" style="endArrow=none;html=1;rounded=0;entryX=1;entryY=1;entryDx=0;entryDy=0;" edge="1" parent="1" target="G_HvF8o0j8jsXv9Kuq5L-38">
          <mxGeometry relative="1" as="geometry">
            <mxPoint x="936" y="300" as="sourcePoint" />
            <mxPoint x="946" y="130" as="targetPoint" />
            <Array as="points" />
          </mxGeometry>
        </mxCell>
        <mxCell id="G_HvF8o0j8jsXv9Kuq5L-41" value="" style="endArrow=none;html=1;rounded=0;entryX=0.5;entryY=1;entryDx=0;entryDy=0;" edge="1" parent="1" target="G_HvF8o0j8jsXv9Kuq5L-39">
          <mxGeometry relative="1" as="geometry">
            <mxPoint x="936" y="300" as="sourcePoint" />
            <mxPoint x="866" y="340" as="targetPoint" />
            <Array as="points" />
          </mxGeometry>
        </mxCell>
        <mxCell id="G_HvF8o0j8jsXv9Kuq5L-43" value="제품구분" style="ellipse;whiteSpace=wrap;html=1;align=center;" vertex="1" parent="1">
          <mxGeometry x="990" y="230" width="90" height="40" as="geometry" />
        </mxCell>
        <mxCell id="G_HvF8o0j8jsXv9Kuq5L-44" value="" style="endArrow=none;html=1;rounded=0;" edge="1" parent="1">
          <mxGeometry relative="1" as="geometry">
            <mxPoint x="936" y="300" as="sourcePoint" />
            <mxPoint x="1026" y="270" as="targetPoint" />
            <Array as="points" />
          </mxGeometry>
        </mxCell>
        <mxCell id="G_HvF8o0j8jsXv9Kuq5L-45" value="제품색상" style="ellipse;shape=doubleEllipse;margin=3;whiteSpace=wrap;html=1;align=center;" vertex="1" parent="1">
          <mxGeometry x="1080" y="300" width="100" height="40" as="geometry" />
        </mxCell>
        <mxCell id="G_HvF8o0j8jsXv9Kuq5L-46" value="" style="endArrow=none;html=1;rounded=0;exitX=1;exitY=0.5;exitDx=0;exitDy=0;entryX=0;entryY=0.5;entryDx=0;entryDy=0;" edge="1" parent="1" source="G_HvF8o0j8jsXv9Kuq5L-37" target="G_HvF8o0j8jsXv9Kuq5L-45">
          <mxGeometry relative="1" as="geometry">
            <mxPoint x="946" y="310" as="sourcePoint" />
            <mxPoint x="1066" y="310" as="targetPoint" />
            <Array as="points" />
          </mxGeometry>
        </mxCell>
        <mxCell id="G_HvF8o0j8jsXv9Kuq5L-47" value="제품가격" style="ellipse;whiteSpace=wrap;html=1;align=center;" vertex="1" parent="1">
          <mxGeometry x="900" y="390" width="90" height="40" as="geometry" />
        </mxCell>
        <mxCell id="G_HvF8o0j8jsXv9Kuq5L-48" value="" style="endArrow=none;html=1;rounded=0;exitX=0.5;exitY=1;exitDx=0;exitDy=0;entryX=0.5;entryY=0;entryDx=0;entryDy=0;" edge="1" parent="1" source="G_HvF8o0j8jsXv9Kuq5L-37" target="G_HvF8o0j8jsXv9Kuq5L-47">
          <mxGeometry relative="1" as="geometry">
            <mxPoint x="1001" y="330" as="sourcePoint" />
            <mxPoint x="1086" y="330" as="targetPoint" />
            <Array as="points" />
          </mxGeometry>
        </mxCell>
        <mxCell id="G_HvF8o0j8jsXv9Kuq5L-50" value="관리" style="shape=rhombus;perimeter=rhombusPerimeter;whiteSpace=wrap;html=1;align=center;" vertex="1" parent="1">
          <mxGeometry x="360" y="400" width="120" height="60" as="geometry" />
        </mxCell>
        <mxCell id="G_HvF8o0j8jsXv9Kuq5L-51" value="" style="endArrow=none;html=1;rounded=0;entryX=0.5;entryY=1;entryDx=0;entryDy=0;" edge="1" parent="1" target="G_HvF8o0j8jsXv9Kuq5L-50">
          <mxGeometry relative="1" as="geometry">
            <mxPoint x="420" y="519" as="sourcePoint" />
            <mxPoint x="420" y="469" as="targetPoint" />
            <Array as="points" />
          </mxGeometry>
        </mxCell>
        <mxCell id="G_HvF8o0j8jsXv9Kuq5L-56" value="N" style="edgeLabel;html=1;align=center;verticalAlign=middle;resizable=0;points=[];" vertex="1" connectable="0" parent="G_HvF8o0j8jsXv9Kuq5L-51">
          <mxGeometry relative="1" as="geometry">
            <mxPoint x="-12" y="-102" as="offset" />
          </mxGeometry>
        </mxCell>
        <mxCell id="G_HvF8o0j8jsXv9Kuq5L-57" value="1" style="edgeLabel;html=1;align=center;verticalAlign=middle;resizable=0;points=[];" vertex="1" connectable="0" parent="G_HvF8o0j8jsXv9Kuq5L-51">
          <mxGeometry relative="1" as="geometry">
            <mxPoint x="-6" y="-14" as="offset" />
          </mxGeometry>
        </mxCell>
        <mxCell id="G_HvF8o0j8jsXv9Kuq5L-58" value="관리" style="shape=rhombus;perimeter=rhombusPerimeter;whiteSpace=wrap;html=1;align=center;" vertex="1" parent="1">
          <mxGeometry x="630" y="290" width="120" height="60" as="geometry" />
        </mxCell>
        <mxCell id="G_HvF8o0j8jsXv9Kuq5L-59" value="" style="endArrow=none;html=1;rounded=0;exitX=1;exitY=0.5;exitDx=0;exitDy=0;entryX=0;entryY=0.5;entryDx=0;entryDy=0;" edge="1" parent="1" source="G_HvF8o0j8jsXv9Kuq5L-1" target="G_HvF8o0j8jsXv9Kuq5L-58">
          <mxGeometry relative="1" as="geometry">
            <mxPoint x="443" y="349" as="sourcePoint" />
            <mxPoint x="490" y="379" as="targetPoint" />
            <Array as="points" />
          </mxGeometry>
        </mxCell>
        <mxCell id="G_HvF8o0j8jsXv9Kuq5L-67" value="N" style="edgeLabel;html=1;align=center;verticalAlign=middle;resizable=0;points=[];" vertex="1" connectable="0" parent="G_HvF8o0j8jsXv9Kuq5L-59">
          <mxGeometry relative="1" as="geometry">
            <mxPoint x="73" y="-17" as="offset" />
          </mxGeometry>
        </mxCell>
        <mxCell id="G_HvF8o0j8jsXv9Kuq5L-60" value="" style="endArrow=none;html=1;rounded=0;entryX=1;entryY=0.5;entryDx=0;entryDy=0;exitX=0;exitY=0.5;exitDx=0;exitDy=0;" edge="1" parent="1" source="G_HvF8o0j8jsXv9Kuq5L-37" target="G_HvF8o0j8jsXv9Kuq5L-58">
          <mxGeometry relative="1" as="geometry">
            <mxPoint x="877" y="310" as="sourcePoint" />
            <mxPoint x="737" y="320" as="targetPoint" />
            <Array as="points" />
          </mxGeometry>
        </mxCell>
        <mxCell id="G_HvF8o0j8jsXv9Kuq5L-68" value="M" style="edgeLabel;html=1;align=center;verticalAlign=middle;resizable=0;points=[];" vertex="1" connectable="0" parent="G_HvF8o0j8jsXv9Kuq5L-60">
          <mxGeometry relative="1" as="geometry">
            <mxPoint x="-61" y="-18" as="offset" />
          </mxGeometry>
        </mxCell>
        <mxCell id="G_HvF8o0j8jsXv9Kuq5L-61" value="&lt;font color=&quot;#ff6666&quot;&gt;구매번호&lt;/font&gt;" style="ellipse;whiteSpace=wrap;html=1;align=center;fontStyle=4;" vertex="1" parent="1">
          <mxGeometry x="650" y="210" width="90" height="40" as="geometry" />
        </mxCell>
        <mxCell id="G_HvF8o0j8jsXv9Kuq5L-62" value="" style="endArrow=none;html=1;rounded=0;entryX=0.5;entryY=1;entryDx=0;entryDy=0;exitX=0.5;exitY=0;exitDx=0;exitDy=0;" edge="1" parent="1" source="G_HvF8o0j8jsXv9Kuq5L-58" target="G_HvF8o0j8jsXv9Kuq5L-61">
          <mxGeometry relative="1" as="geometry">
            <mxPoint x="946" y="310" as="sourcePoint" />
            <mxPoint x="873" y="274" as="targetPoint" />
            <Array as="points" />
          </mxGeometry>
        </mxCell>
        <mxCell id="G_HvF8o0j8jsXv9Kuq5L-63" value="수량" style="ellipse;whiteSpace=wrap;html=1;align=center;" vertex="1" parent="1">
          <mxGeometry x="600" y="400" width="90" height="40" as="geometry" />
        </mxCell>
        <mxCell id="G_HvF8o0j8jsXv9Kuq5L-64" value="구매일자" style="ellipse;whiteSpace=wrap;html=1;align=center;" vertex="1" parent="1">
          <mxGeometry x="710" y="400" width="90" height="40" as="geometry" />
        </mxCell>
        <mxCell id="G_HvF8o0j8jsXv9Kuq5L-65" value="" style="endArrow=none;html=1;rounded=0;exitX=0.5;exitY=1;exitDx=0;exitDy=0;entryX=0.5;entryY=0;entryDx=0;entryDy=0;" edge="1" parent="1" source="G_HvF8o0j8jsXv9Kuq5L-58" target="G_HvF8o0j8jsXv9Kuq5L-63">
          <mxGeometry relative="1" as="geometry">
            <mxPoint x="951" y="350" as="sourcePoint" />
            <mxPoint x="956" y="400" as="targetPoint" />
            <Array as="points" />
          </mxGeometry>
        </mxCell>
        <mxCell id="G_HvF8o0j8jsXv9Kuq5L-66" value="" style="endArrow=none;html=1;rounded=0;entryX=0.5;entryY=0;entryDx=0;entryDy=0;" edge="1" parent="1" target="G_HvF8o0j8jsXv9Kuq5L-64">
          <mxGeometry relative="1" as="geometry">
            <mxPoint x="690" y="350" as="sourcePoint" />
            <mxPoint x="655" y="409" as="targetPoint" />
            <Array as="points" />
          </mxGeometry>
        </mxCell>
      </root>
    </mxGraphModel>
  </diagram>
</mxfile>
